Coordinates
version=1
nRows=19
nColumns=24
inDegrees=yes

Units are S.I. units (second, meters, Newtons, ...)
Angles are in degrees.

endheader
time	pelvis_tilt	pelvis_list	pelvis_rotation	pelvis_tx	pelvis_ty	pelvis_tz	hip_flexion_r	hip_adduction_r	hip_rotation_r	knee_angle_r	ankle_angle_r	subtalar_angle_r	mtp_angle_r	hip_flexion_l	hip_adduction_l	hip_rotation_l	knee_angle_l	ankle_angle_l	subtalar_angle_l	mtp_angle_l	lumbar_extension	lumbar_bending	lumbar_rotation
      0.91616667	     -2.95958918	     -2.89125996	     -0.94381302	     -0.17839020	      0.97797953	      0.30822615	     -8.84044533	      6.88297408	     -5.37610769	    -11.29081603	     13.74215062	     -2.69055832	     -0.70462887	     26.41978188	     -1.06976471	     -1.69768495	     -6.23492694	     -2.71885500	     -4.02946276	     -1.86044370	     -1.02320387	      6.53139917	      9.67125723
      0.92033333	     -3.01805913	     -2.82041371	     -0.97969472	     -0.17236607	      0.97748568	      0.30789809	     -8.71972288	      6.73123984	     -5.32644157	    -12.13665869	     13.80793634	     -2.72140835	     -0.67684042	     26.31057372	     -0.91279247	     -1.53741192	     -6.21179034	     -3.02676342	     -4.15342400	     -1.63428229	     -0.90456589	      6.46698130	      9.68316737
      0.92450000	     -3.09425507	     -2.74952442	     -1.00222655	     -0.16635689	      0.97700352	      0.30754538	     -8.53810115	      6.57626140	     -5.30489145	    -13.05376268	     13.80969745	     -2.72944207	     -0.59909110	     26.23953648	     -0.74879902	     -1.33186642	     -6.28910550	     -3.36816195	     -4.40493362	     -1.23260524	     -0.77239980	      6.40088140	      9.70334482
      0.92866667	     -3.15723094	     -2.64749791	     -1.03699697	     -0.16027596	      0.97662042	      0.30722366	     -8.35059371	      6.38969854	     -5.22314108	    -14.01594056	     13.84488228	     -2.82683751	     -0.53374943	     26.12445329	     -0.56492368	     -1.14601411	     -6.37503609	     -3.71023625	     -4.53528344	     -1.01281050	     -0.62515086	      6.29284964	      9.68086393
      0.93283333	     -3.23265575	     -2.54296473	     -1.05946303	     -0.15421820	      0.97625777	      0.30685892	     -8.10096312	      6.19268541	     -5.18586883	    -15.05985598	     13.79455141	     -2.87956511	     -0.42385812	     26.03684863	     -0.36906102	     -0.89821680	     -6.53645531	     -4.09402378	     -4.84568309	     -0.73414231	     -0.48341955	      6.18956358	      9.67684596
      0.93700000	     -3.28996033	     -2.42041687	     -1.05633286	     -0.14812131	      0.97594590	      0.30646475	     -7.83623045	      5.96829388	     -5.22935985	    -16.15738231	     13.63759658	     -2.85910579	      1.46159568	     25.94466747	     -0.15151335	     -0.68278102	     -6.76489654	     -4.51754258	     -5.13253400	      2.95258607	     -0.35046017	      6.05203144	      9.63677030
      0.94116667	     -3.37221373	     -2.29938210	     -1.08626540	     -0.14204746	      0.97567806	      0.30612100	     -7.51038143	      5.75477229	     -5.13186973	    -17.31624750	     13.48915308	     -3.03296783	      1.51146934	     25.86641324	      0.05149277	     -0.43800650	     -7.01538393	     -4.90314759	     -5.46286521	      2.96176884	     -0.19027590	      5.92284995	      9.62297076
      0.94533333	     -3.44540854	     -2.16388207	     -1.09442450	     -0.13597009	      0.97544794	      0.30571272	     -7.14436715	      5.51225984	     -5.11624065	    -18.55930954	     13.28276296	     -3.09584394	      1.60785436	     25.78599036	      0.27972747	     -0.16461242	     -7.31078041	     -5.28494295	     -5.85962856	      2.98887118	     -0.04133142	      5.77998284	      9.59331644
      0.94950000	     -3.53282080	     -2.01831888	     -1.09928890	     -0.12988810	      0.97523291	      0.30529798	     -6.71867839	      5.25402095	     -5.11488671	    -19.87385649	     13.00398008	     -3.15128339	      1.74015528	     25.72715006	      0.51622621	      0.10143115	     -7.64456693	     -5.65105491	     -6.25413246	      3.02589880	      0.12893763	      5.62275460	      9.54713128
      0.95366667	     -3.61597426	     -1.86104326	     -1.09744070	     -0.12382202	      0.97505816	      0.30486619	     -6.25337190	      4.97685373	     -5.12766492	    -21.25490691	     12.65234175	     -3.18906814	      1.91333403	     25.67052838	      0.76555216	      0.36758861	     -8.00941242	     -6.00216093	     -6.67920977	      3.06873698	      0.29133051	      5.44797723	      9.49644621
      0.95783333	     -3.69226661	     -1.68832255	     -1.08990945	     -0.11775780	      0.97492603	      0.30441014	     -5.75022092	      4.67356320	     -5.16362094	    -22.70374323	     12.22266527	     -3.19852911	      2.14103114	     25.60964151	      1.03184561	      0.62885728	     -8.39769700	     -6.33576860	     -7.13787068	      3.11724494	      0.44580652	      5.26228208	      9.43676343
      0.96200000	     -3.77400006	     -1.50657417	     -1.07816249	     -0.11171268	      0.97480575	      0.30393519	     -5.19615938	      4.35213356	     -5.21174830	    -24.21786715	     11.70386326	     -3.20543230	      2.40702119	     25.56550421	      1.30585486	      0.87037431	     -8.81914051	     -6.62517821	     -7.58540114	      3.16437447	      0.60487206	      5.06254333	      9.37102068
      0.96616667	     -3.86475160	     -1.32101849	     -1.06238110	     -0.10569407	      0.97468810	      0.30344553	     -4.58623967	      4.01831718	     -5.26985794	    -25.79768520	     11.10150307	     -3.19910848	      2.72147446	     25.54216958	      1.58283913	      1.09797970	     -9.27087131	     -6.87102834	     -8.03738817	      3.20909609	      0.77265515	      4.86100758	      9.29555973
      0.97033333	     -3.85077727	     -1.10357186	     -0.99467909	     -0.09965080	      0.97472691	      0.30284065	     -4.07166508	      3.61912745	     -5.46341877	    -27.36608274	     10.19199450	     -3.07719647	      9.62975094	     25.40819598	      1.91855752	      1.36646914	     -9.73758452	     -7.04685836	     -8.56077289	      3.95376896	      0.80626128	      4.62113440	      9.20454351
      0.97450000	     -3.94454596	     -0.87265048	     -1.00793787	     -0.09366901	      0.97467569	      0.30239899	     -3.36738791	      3.22643658	     -5.46632160	    -29.07619939	      9.48537308	     -3.22268381	      9.68779486	     25.38630730	      2.21714944	      1.47459243	    -10.19979893	     -7.21951776	     -8.90922657	      3.94287976	      0.97964923	      4.35978379	      9.12113172
      0.97866667	     -4.01530555	     -0.65099471	     -0.97893459	     -0.08773419	      0.97463590	      0.30187377	     -2.65517422	      2.82709412	     -5.54664838	    -30.81415522	      8.61193832	     -3.21620730	      9.80462920	     25.35865440	      2.52846560	      1.64587731	    -10.70316004	     -7.29772120	     -9.32752672	      3.92605104	      1.11524668	      4.11295025	      9.03687056
      0.98283333	     -4.07477230	     -0.38782723	     -0.95440888	     -0.08182667	      0.97463044	      0.30131575	     -1.91196288	      2.36643424	     -5.62814240	    -32.61081897	      7.71830619	     -3.10713993	     10.16029640	     25.30463849	      2.88698529	      1.83915330	    -11.18567597	     -7.31862241	     -9.85471534	      3.87375619	      1.22333078	      3.82224277	      8.93830783
      0.98700000	     -4.12343908	     -0.12915638	     -0.91980542	     -0.07594563	      0.97464447	      0.30076634	     -1.15443386	      1.90682346	     -5.71482532	    -34.42248851	      6.67398967	     -3.07050715	     10.61625564	     25.24830442	      3.23555873	      1.97696650	    -11.68615145	     -7.26972591	    -10.23383934	      3.80241782	      1.32621578	      3.53323163	      8.83292637
      0.99116667	     -4.08005288	      0.16396700	     -0.83999953	     -0.07002931	      0.97482043	      0.30014362	     -0.49622861	      1.38790853	     -5.88083864	    -36.19566534	      5.38035247	     -3.07076394	     15.07024345	     25.06648301	      3.63909045	      2.14837246	    -12.13839591	     -7.19920385	    -10.58959024	      3.03197669	      1.31583885	      3.19498662	      8.74441363
